<svg id="Group_8" data-name="Group 8" xmlns="http://www.w3.org/2000/svg" xmlns:xlink="http://www.w3.org/1999/xlink" width="227.176" height="167.558" viewBox="0 0 227.176 167.558">
  <defs>
    <clipPath id="clip-path">
      <rect id="Rectangle_24" data-name="Rectangle 24" width="227.176" height="167.558" fill="none"/>
    </clipPath>
  </defs>
  <g id="Group_7" data-name="Group 7" transform="translate(0 0)" clip-path="url(#clip-path)">
    <path id="Path_19" data-name="Path 19" d="M105.545,147.654a48.032,48.032,0,0,0,13-1.794l56-15.744A25.731,25.731,0,0,0,192.886,110l2.2-66.563L16.379,45.146,18.2,110a25.735,25.735,0,0,0,18.344,20.115l56,15.744A48.032,48.032,0,0,0,105.545,147.654Z" transform="translate(7.505 19.904)" fill="#fded08"/>
    <path id="Path_20" data-name="Path 20" d="M10.425,19.225a288.729,288.729,0,0,1,206.126-.408c6.123,2.269,8.751,3.522,9.707,10.012A119.078,119.078,0,0,1,226.3,57.95c-.885,5.942-4.72,8.208-9.658,10.075C149.96,93.456,77.872,93.191,10.617,68.392,5.388,66.526,1.781,64.679.925,58.362A117.471,117.471,0,0,1,.885,29.255c.677-4.984,4.677-8.312,9.54-10.03" transform="translate(0 0)" fill="#243975"/>
    <path id="Path_21" data-name="Path 21" d="M38.666,44.527H21.384V39.693H33.406a.8.8,0,0,0,.873-.7V32.778a.8.8,0,0,0-.873-.7H21.384V26.856H37.616a.8.8,0,0,0,.872-.7V19.576a.8.8,0,0,0-.872-.7H9.2a.8.8,0,0,0-.875.7v32.23A.8.8,0,0,0,9.2,52.5H38.666a.79.79,0,0,0,.873-.694V45.229a.8.8,0,0,0-.873-.7" transform="translate(3.815 8.65)" fill="#fff"/>
    <path id="Path_22" data-name="Path 22" d="M70.678,18.878H59.336a.755.755,0,0,0-.82.653V37.737l-13-18.525a.9.9,0,0,0-.723-.334H33.156a.756.756,0,0,0-.825.653v32.3a.755.755,0,0,0,.825.662H44.494a.749.749,0,0,0,.817-.662V37.771l8.08,11.485A7.018,7.018,0,0,0,59.336,52.5H70.678a.752.752,0,0,0,.824-.662v-32.3a.753.753,0,0,0-.824-.653" transform="translate(14.815 8.65)" fill="#fff"/>
    <path id="Path_23" data-name="Path 23" d="M158.6,18.878H147.282a.8.8,0,0,0-.871.7v4.214c0,5.788-1.941,11.279-6.071,17.179-4.1-5.861-6.022-11.348-6.022-17.179V19.576a.8.8,0,0,0-.875-.7h-11.31a.8.8,0,0,0-.875.7v4.214c0,7.526,4.649,17.079,13.821,28.4a.943.943,0,0,0,.735.311h9.1a.939.939,0,0,0,.735-.311c9.172-11.325,13.821-20.882,13.821-28.4V19.576a.8.8,0,0,0-.871-.7" transform="translate(55.563 8.65)" fill="#fff"/>
    <path id="Path_24" data-name="Path 24" d="M112.25,18.086c-13.327,0-21.933,6.976-21.933,17.773,0,10.907,8.606,17.954,21.933,17.954,13.284,0,21.881-7.046,21.881-17.954,0-10.8-8.6-17.773-21.881-17.773m0,26.866c-5.139,0-8.2-3.4-8.2-9.093,0-5.659,2.992-8.91,8.2-8.91,5.183,0,8.159,3.25,8.159,8.91,0,5.777-2.976,9.093-8.159,9.093" transform="translate(41.385 8.287)" fill="#fff"/>
    <path id="Path_25" data-name="Path 25" d="M83.829,34.682a.632.632,0,0,0-.691.554v5.184a.636.636,0,0,0,.691.554h4.13v3.911c-.7.038-1.412.067-2.135.067-7.05,0-10.479-2.829-10.479-8.657,0-6,3.762-8.914,11.51-8.914a31.393,31.393,0,0,1,11.526,1.81,1.1,1.1,0,0,0,.847-.063.708.708,0,0,0,.4-.6V20.937a.723.723,0,0,0-.411-.612c-2.639-1.353-7.488-2.24-12.36-2.24-15.8,0-25.239,6.808-25.239,18.21,0,15.241,15.1,17.516,24.106,17.516,3.559,0,10.845-.836,14.614-2.2a.723.723,0,0,0,.534-.649V34.682Z" transform="translate(28.234 8.287)" fill="#fff"/>
    <path id="Path_26" data-name="Path 26" d="M26.957,94.009,39.938,65.917a.755.755,0,0,1,.71-.458h.417a.713.713,0,0,1,.71.458L54.631,94.009a.738.738,0,0,1-.71,1.086H50.29a1.2,1.2,0,0,1-1.212-.836l-2.044-4.509H34.555L32.507,94.26A1.256,1.256,0,0,1,31.3,95.1H27.667a.738.738,0,0,1-.71-1.086M44.99,85.119l-4.175-9.182h-.124L36.6,85.119Z" transform="translate(12.314 29.994)" fill="#243975"/>
    <path id="Path_27" data-name="Path 27" d="M52.414,66.537a.791.791,0,0,1,.792-.792H70.2a.791.791,0,0,1,.792.792v3.424a.791.791,0,0,1-.792.792H57.839V78.6H68.15a.822.822,0,0,1,.795.792v3.424a.822.822,0,0,1-.795.792H57.839v10.56a.82.82,0,0,1-.792.795H53.206a.793.793,0,0,1-.792-.795Z" transform="translate(24.017 30.126)" fill="#243975"/>
    <path id="Path_28" data-name="Path 28" d="M78.112,70.754H71.727a.792.792,0,0,1-.795-.792V66.539a.8.8,0,0,1,.795-.795H89.966a.8.8,0,0,1,.795.795v3.424a.794.794,0,0,1-.795.792H83.581V94.17a.822.822,0,0,1-.793.793H78.9a.82.82,0,0,1-.792-.793Z" transform="translate(32.502 30.125)" fill="#243975"/>
    <path id="Path_29" data-name="Path 29" d="M91.165,66.537a.792.792,0,0,1,.795-.792h16.987a.792.792,0,0,1,.793.792v3.424a.792.792,0,0,1-.793.792H96.592V77.6H106.9a.822.822,0,0,1,.795.795v3.466a.792.792,0,0,1-.795.792H96.592v7.306h12.354a.793.793,0,0,1,.793.792v3.422a.793.793,0,0,1-.793.795H91.96a.794.794,0,0,1-.795-.795Z" transform="translate(41.773 30.126)" fill="#243975"/>
    <path id="Path_30" data-name="Path 30" d="M125.337,83.15c3.634-1.46,6.178-4.592,6.178-8.431a9.04,9.04,0,0,0-9.1-8.974h-3.787l-.255.678-1.632,4.329h5.216a4.153,4.153,0,0,1,4.131,4.051,4.248,4.248,0,0,1-4.131,4.255h-2.976l-2.142,4.467h2.9L125.3,94.587a.716.716,0,0,0,.669.376h4.382a.791.791,0,0,0,.709-1.212Z" transform="translate(53.493 30.126)" fill="#243975"/>
    <path id="Path_31" data-name="Path 31" d="M113.338,63.755l6.976.124-4.192,11.107,5.731.13L110.738,98.491l3.341-19.684-3.4-.216Z" transform="translate(50.713 29.214)" fill="#243975"/>
  </g>
</svg>
