<svg id="Group_16" data-name="Group 16" xmlns="http://www.w3.org/2000/svg" xmlns:xlink="http://www.w3.org/1999/xlink" width="64.012" height="64.012" viewBox="0 0 64.012 64.012">
  <defs>
    <clipPath id="clip-path">
      <rect id="Rectangle_28" data-name="Rectangle 28" width="64.012" height="64.012" fill="none"/>
    </clipPath>
  </defs>
  <g id="Group_15" data-name="Group 15" clip-path="url(#clip-path)">
    <path id="Path_40" data-name="Path 40" d="M32.006,64.012h0A32.006,32.006,0,0,1,0,32.006H0a32.006,32.006,0,0,1,64.012,0h0A32.006,32.006,0,0,1,32.006,64.012" fill="#28356a"/>
    <path id="Path_41" data-name="Path 41" d="M129.907,111.193a18.713,18.713,0,1,0,18.713,18.713,18.713,18.713,0,0,0-18.713-18.713m8.608,27.04a1.112,1.112,0,0,1-1.591.374c-4.4-2.713-9.918-3.275-16.467-1.778a1.157,1.157,0,1,1-.561-2.245c7.111-1.591,13.286-.936,18.151,2.058a1.121,1.121,0,0,1,.468,1.591m2.245-5.146a1.409,1.409,0,0,1-1.965.468,24.255,24.255,0,0,0-18.619-2.152,1.421,1.421,0,1,1-.842-2.714,27.373,27.373,0,0,1,21.052,2.526,1.321,1.321,0,0,1,.374,1.871m.187-5.239c-5.988-3.555-16-3.93-21.706-2.152a1.716,1.716,0,1,1-1.029-3.275c6.643-1.965,17.59-1.591,24.513,2.526a1.809,1.809,0,0,1,.655,2.433,1.961,1.961,0,0,1-2.433.468" transform="translate(-97.9 -97.899)" fill="#fff"/>
  </g>
</svg>
