<svg id="Group_18" data-name="Group 18" xmlns="http://www.w3.org/2000/svg" xmlns:xlink="http://www.w3.org/1999/xlink" width="64.442" height="64.441" viewBox="0 0 64.442 64.441">
  <defs>
    <clipPath id="clip-path">
      <rect id="Rectangle_29" data-name="Rectangle 29" width="64.442" height="64.442" fill="none"/>
    </clipPath>
  </defs>
  <g id="Group_17" data-name="Group 17" clip-path="url(#clip-path)">
    <path id="Path_42" data-name="Path 42" d="M64.442,32.22A32.221,32.221,0,1,1,32.221,0,32.221,32.221,0,0,1,64.442,32.22" transform="translate(0 0.001)" fill="#28356a"/>
    <path id="Path_43" data-name="Path 43" d="M152.755,118.719h6.532c.637,5.584,3.857,8.524,9.311,9.293v6.415a15.288,15.288,0,0,1-9.109-2.784c-.041.461-.1.794-.1,1.128-.006,4.081.013,8.162-.007,12.242-.034,6.884-4.966,11.913-12.115,12.382-5.714.375-11.44-4.6-12.339-10.725a12.239,12.239,0,0,1,12.478-13.786c.4.019.8.1,1.259.16v6.5c-.35,0-.7.016-1.04,0a5.556,5.556,0,1,0,5.109,5.487c.043-8.161.017-16.323.018-24.485,0-.584,0-1.168,0-1.829" transform="translate(-118.693 -104.526)" fill="#dd305f"/>
    <path id="Path_44" data-name="Path 44" d="M139.521,106.043h6.532c.637,5.584,3.857,8.524,9.311,9.293v6.415a15.287,15.287,0,0,1-9.109-2.784c-.041.461-.1.794-.1,1.128-.006,4.081.013,8.162-.007,12.242-.034,6.884-4.966,11.913-12.115,12.382-5.714.375-11.44-4.6-12.339-10.725a12.239,12.239,0,0,1,12.477-13.786c.4.019.8.1,1.259.159v6.5c-.35,0-.7.016-1.04,0a5.556,5.556,0,1,0,5.109,5.487c.043-8.161.017-16.323.018-24.485,0-.584,0-1.168,0-1.829" transform="translate(-107.041 -93.365)" fill="#47b4cc"/>
    <path id="Path_45" data-name="Path 45" d="M161.456,124.409a9.254,9.254,0,0,1-3.491-5.69h-5.209c0,.661,0,1.245,0,1.829,0,8.162.025,16.323-.018,24.485a5.524,5.524,0,0,1-5.976,5.592,5.44,5.44,0,0,1-4.222-2.348,5.56,5.56,0,0,1,3.507-10.246c.344.019.69,0,1.04,0v-5.154a12.245,12.245,0,0,0-12.154,13.792,12.787,12.787,0,0,0,3.122,6.567,11.117,11.117,0,0,0,7.635,2.643c7.149-.469,12.081-5.5,12.115-12.382.02-4.081,0-8.162.007-12.242,0-.334.056-.667.1-1.128a15.288,15.288,0,0,0,9.109,2.784V126.5a12.018,12.018,0,0,1-5.561-2.088" transform="translate(-118.693 -104.526)" fill="#fff"/>
  </g>
</svg>
