<svg id="Group_12" data-name="Group 12" xmlns="http://www.w3.org/2000/svg" xmlns:xlink="http://www.w3.org/1999/xlink" width="64.012" height="64.012" viewBox="0 0 64.012 64.012">
  <defs>
    <clipPath id="clip-path">
      <rect id="Rectangle_26" data-name="Rectangle 26" width="64.012" height="64.012" fill="none"/>
    </clipPath>
  </defs>
  <g id="Group_11" data-name="Group 11" clip-path="url(#clip-path)">
    <path id="Path_34" data-name="Path 34" d="M64.012,32.006A32.006,32.006,0,1,1,32.006,0,32.006,32.006,0,0,1,64.012,32.006" transform="translate(0 0)" fill="#28356a"/>
    <path id="Path_35" data-name="Path 35" d="M139.59,155.744s-.393-2.766-1.6-3.983a5.74,5.74,0,0,0-4.021-1.7c-5.617-.406-14.042-.406-14.042-.406h-.017s-8.425,0-14.042.406a5.74,5.74,0,0,0-4.021,1.7c-1.2,1.218-1.594,3.983-1.594,3.983a60.607,60.607,0,0,0-.4,6.5v3.046a60.608,60.608,0,0,0,.4,6.5s.392,2.766,1.594,3.984c1.527,1.6,3.532,1.548,4.425,1.715,3.212.308,13.646.4,13.646.4s8.433-.012,14.05-.419a5.745,5.745,0,0,0,4.021-1.7c1.2-1.218,1.6-3.984,1.6-3.984a60.787,60.787,0,0,0,.4-6.5v-3.046a60.786,60.786,0,0,0-.4-6.5m-23.813,13.231V157.7l10.844,5.659Z" transform="translate(-87.916 -131.762)" fill="#fff"/>
  </g>
</svg>
